<svg xmlns="http://www.w3.org/2000/svg" viewBox="0 0 64 64">
  <defs>
    <linearGradient id="g" x1="0%" y1="0%" x2="100%" y2="100%">
      <stop offset="0%" stop-color="#7fc68d" />
      <stop offset="100%" stop-color="#1b5e39" />
    </linearGradient>
  </defs>
  <rect width="64" height="64" rx="18" fill="url(#g)" />
  <path
    d="M19 34.5c0-10.2 6.5-16.5 16-16.5 6.7 0 11.9 2.8 14.5 8.2l-6.2 2.9c-1.7-3.2-4.3-4.7-8.2-4.7-5.9 0-9.5 4-9.5 10.1 0 6.2 3.8 10.2 9.7 10.2 4.1 0 6.7-1.7 8.6-5.2l6.2 2.8c-2.8 5.8-8.1 8.9-15 8.9-9.8 0-16.1-6.4-16.1-16.7Z"
    fill="#fff"
  />
</svg>
